<svg width="24" height="16" viewBox="0 0 24 16" fill="none" xmlns="http://www.w3.org/2000/svg">
  <path id="menu-line-1" fill-rule="evenodd" clip-rule="evenodd"
    d="M0.399994 1.33324C0.399994 0.81777 0.817861 0.399902 1.33333 0.399902H22.6667C23.1821 0.399902 23.6 0.81777 23.6 1.33324C23.6 1.8487 23.1821 2.26657 22.6667 2.26657H1.33333C0.817861 2.26657 0.399994 1.8487 0.399994 1.33324Z"
    fill="#E7F7F8" />
  <path id="menu-line-2" fill-rule="evenodd" clip-rule="evenodd"
    d="M0.399994 7.99998C0.399994 7.48452 0.817861 7.06665 1.33333 7.06665H22.6667C23.1821 7.06665 23.6 7.48452 23.6 7.99998C23.6 8.51545 23.1821 8.93332 22.6667 8.93332H1.33333C0.817861 8.93332 0.399994 8.51545 0.399994 7.99998Z"
    fill="#E7F7F8" />
  <path id="menu-line-3" fill-rule="evenodd" clip-rule="evenodd"
    d="M0.399994 14.6665C0.399994 14.151 0.817861 13.7332 1.33333 13.7332H22.6667C23.1821 13.7332 23.6 14.151 23.6 14.6665C23.6 15.182 23.1821 15.5998 22.6667 15.5998H1.33333C0.817861 15.5998 0.399994 15.182 0.399994 14.6665Z"
    fill="#E7F7F8" />
</svg>